<mxfile host="app.diagrams.net" agent="Mozilla/5.0 (Windows NT 10.0; Win64; x64; rv:131.0) Gecko/20100101 Firefox/131.0" version="24.7.17">
  <diagram name="Page-1" id="-BEs1d6lwpMOucNAkOac">
    <mxGraphModel dx="1434" dy="785" grid="1" gridSize="10" guides="1" tooltips="1" connect="1" arrows="1" fold="1" page="1" pageScale="1" pageWidth="827" pageHeight="1169" math="0" shadow="0">
      <root>
        <mxCell id="0" />
        <mxCell id="1" parent="0" />
        <mxCell id="y3tPWJdc0TDrSjA-nD9r-1" value="Goods Ledger" style="rounded=0;whiteSpace=wrap;html=1;" parent="1" vertex="1">
          <mxGeometry x="430" y="40" width="100" height="40" as="geometry" />
        </mxCell>
        <mxCell id="y3tPWJdc0TDrSjA-nD9r-2" value="Income" style="rounded=0;whiteSpace=wrap;html=1;" parent="1" vertex="1">
          <mxGeometry x="1" y="130" width="80" height="40" as="geometry" />
        </mxCell>
        <mxCell id="y3tPWJdc0TDrSjA-nD9r-3" value="&lt;div&gt;Car Ledger&lt;/div&gt;" style="rounded=0;whiteSpace=wrap;html=1;" parent="1" vertex="1">
          <mxGeometry x="690" y="30" width="100" height="40" as="geometry" />
        </mxCell>
        <mxCell id="y3tPWJdc0TDrSjA-nD9r-4" value="Daily B&amp;amp;S" style="rounded=0;whiteSpace=wrap;html=1;" parent="1" vertex="1">
          <mxGeometry x="90" y="200" width="100" height="40" as="geometry" />
        </mxCell>
        <mxCell id="cP0VO7rM4Eh250nShlnv-2" value="" style="strokeWidth=2;html=1;shape=mxgraph.flowchart.annotation_2;align=left;labelPosition=right;pointerEvents=1;rotation=90;" parent="1" vertex="1">
          <mxGeometry x="50" y="55" width="50" height="100" as="geometry" />
        </mxCell>
        <mxCell id="cP0VO7rM4Eh250nShlnv-3" value="Expense" style="rounded=0;whiteSpace=wrap;html=1;" parent="1" vertex="1">
          <mxGeometry x="90" y="129" width="80" height="40" as="geometry" />
        </mxCell>
        <mxCell id="cP0VO7rM4Eh250nShlnv-4" value="Daily Cash" style="rounded=0;whiteSpace=wrap;html=1;" parent="1" vertex="1">
          <mxGeometry x="35" y="40" width="80" height="40" as="geometry" />
        </mxCell>
        <mxCell id="0vb944mvBpbHNHZJIUae-2" value="&lt;div&gt;Supplier&lt;/div&gt;" style="rounded=0;whiteSpace=wrap;html=1;" vertex="1" parent="1">
          <mxGeometry x="1" y="280" width="80" height="40" as="geometry" />
        </mxCell>
        <mxCell id="0vb944mvBpbHNHZJIUae-3" value="Price" style="rounded=0;whiteSpace=wrap;html=1;" vertex="1" parent="1">
          <mxGeometry x="90" y="280" width="80" height="40" as="geometry" />
        </mxCell>
        <mxCell id="0vb944mvBpbHNHZJIUae-5" value="Payment" style="rounded=0;whiteSpace=wrap;html=1;" vertex="1" parent="1">
          <mxGeometry x="180" y="280" width="80" height="40" as="geometry" />
        </mxCell>
        <mxCell id="0vb944mvBpbHNHZJIUae-9" value="Payment" style="rounded=0;whiteSpace=wrap;html=1;" vertex="1" parent="1">
          <mxGeometry x="270" y="280" width="80" height="40" as="geometry" />
        </mxCell>
      </root>
    </mxGraphModel>
  </diagram>
</mxfile>
